# xmcd
#
# Track frame offsets:
#	150
#	13464
#	24704
#	34958
#	43810
#	59264
#	69060
#	84306
#	96100
#	107007
#	120448
#	136693
#	147738
#	165058
#
# Disc length: 2341 seconds
#
# Revision: 1
# Processed by: cddbd v1.5.2PL0 Copyright (c) Steve Scherf et al.
# Submitted via: audiograbber 1.83.01
#
DISCID=b409230e
DTITLE=Magic And His Retro-Rockets - Rockin'  And Boppin'  With
DYEAR=2000
DGENRE=Rock
TTITLE0=You Can Do No Wrong
TTITLE1=I'm Coming Home
TTITLE2=Trouble Bound
TTITLE3=Sweet Sweet Girl
TTITLE4=If You Want Your Woman
TTITLE5=You CAn't Make Love To Somebody
TTITLE6=Kaw Liga
TTITLE7=Ole Slew Foot
TTITLE8=Rock Boppin'  Baby
TTITLE9=Baby What You Want Me To Do
TTITLE10=Long Black Train
TTITLE11=Jungle Rock
TTITLE12=Lost Highway
TTITLE13=Everybody's Trying To Be My Baby
EXTD=
EXTT0=
EXTT1=
EXTT2=
EXTT3=
EXTT4=
EXTT5=
EXTT6=
EXTT7=
EXTT8=
EXTT9=
EXTT10=
EXTT11=
EXTT12=
EXTT13=
PLAYORDER=
